<svg width="20" height="20" viewBox="0 0 20 20" fill="none" xmlns="http://www.w3.org/2000/svg">
<path d="M7.51725 13.5578L10 12.052L12.4828 13.5578L11.823 10.7328L14.0193 8.848L11.1328 8.59225L10 5.94225L8.86725 8.59225L5.98075 8.848L8.177 10.7328L7.51725 13.5578ZM10 19.9155L7.073 17H3V12.927L0.0845032 10L3 7.073V3H7.073L10 0.0845032L12.927 3H17V7.073L19.9155 10L17 12.927V17H12.927L10 19.9155ZM10 18.5L12.5 16H16V12.5L18.5 10L16 7.5V4H12.5L10 1.5L7.5 4H4V7.5L1.5 10L4 12.5V16H7.5L10 18.5Z" fill="#A7A7A7"/>
</svg>
